<svg xmlns="http://www.w3.org/2000/svg" viewBox="0 0 1024 1024" width="1024" height="1024" role="img" aria-label="Silhouette profile with dotted digital twin">
<title>Silhouette profile with dotted digital twin</title>
<g fill="#000000">
<path d="M 667.0 142.0 L 623.0 116.0 L 579.0 99.0 L 513.0 84.0 L 454.0 81.0 L 424.0 84.0 L 402.0 89.0 L 355.0 109.0 L 327.0 129.0 L 308.0 148.0 L 294.0 166.0 L 278.0 193.0 L 265.0 228.0 L 258.0 265.0 L 257.0 299.0 L 263.0 346.0 L 275.0 386.0 L 293.0 425.0 L 319.0 471.0 L 321.0 515.0 L 315.0 547.0 L 308.0 567.0 L 298.0 586.0 L 250.0 620.0 L 221.0 644.0 L 178.0 689.0 L 144.0 736.0 L 114.0 791.0 L 99.0 827.0 L 87.0 864.0 L 79.0 898.0 L 73.0 934.0 L 75.0 942.0 L 737.0 941.0 L 733.0 914.0 L 717.0 864.0 L 705.0 835.0 L 679.0 788.0 L 653.0 751.0 L 624.0 717.0 L 590.0 683.0 L 537.0 639.0 L 547.0 589.0 L 553.0 581.0 L 581.0 579.0 L 607.0 584.0 L 645.0 585.0 L 665.0 581.0 L 680.0 570.0 L 683.0 562.0 L 683.0 545.0 L 678.0 530.0 L 678.0 523.0 L 684.0 516.0 L 691.0 514.0 L 695.0 510.0 L 697.0 500.0 L 695.0 495.0 L 688.0 489.0 L 696.0 484.0 L 703.0 475.0 L 702.0 467.0 L 696.0 455.0 L 697.0 451.0 L 702.0 446.0 L 724.0 440.0 L 732.0 429.0 L 730.0 420.0 L 694.0 367.0 L 687.0 351.0 L 688.0 340.0 L 697.0 315.0 L 697.0 284.0 L 687.0 238.0 L 669.0 198.0 L 676.0 195.0 L 684.0 187.0 L 688.0 177.0 L 688.0 167.0 L 683.0 156.0 Z"/>
<circle cx="621.00" cy="86.83" r="3.34"/>
<circle cx="638.57" cy="87.45" r="4.11"/>
<circle cx="657.34" cy="87.86" r="4.75"/>
<circle cx="675.23" cy="88.09" r="4.89"/>
<circle cx="693.62" cy="88.38" r="5.20"/>
<circle cx="712.11" cy="89.38" r="5.29"/>
<circle cx="729.86" cy="91.24" r="3.99"/>
<circle cx="730.12" cy="106.45" r="5.73"/>
<circle cx="748.84" cy="106.48" r="6.33"/>
<circle cx="767.26" cy="106.91" r="6.70"/>
<circle cx="658.02" cy="105.42" r="3.70"/>
<circle cx="675.90" cy="106.22" r="4.37"/>
<circle cx="693.72" cy="106.49" r="4.92"/>
<circle cx="712.09" cy="106.66" r="5.35"/>
<circle cx="748.65" cy="124.81" r="5.81"/>
<circle cx="767.14" cy="124.89" r="6.51"/>
<circle cx="785.24" cy="125.29" r="7.07"/>
<circle cx="712.38" cy="124.98" r="4.41"/>
<circle cx="730.40" cy="124.69" r="5.05"/>
<circle cx="803.51" cy="126.11" r="6.77"/>
<circle cx="693.93" cy="124.90" r="3.66"/>
<circle cx="785.63" cy="143.61" r="6.79"/>
<circle cx="804.24" cy="143.66" r="7.59"/>
<circle cx="822.53" cy="144.15" r="7.80"/>
<circle cx="748.88" cy="143.57" r="5.08"/>
<circle cx="767.62" cy="143.68" r="5.94"/>
<circle cx="712.33" cy="143.83" r="3.66"/>
<circle cx="730.38" cy="143.65" r="4.37"/>
<circle cx="822.63" cy="162.48" r="7.80"/>
<circle cx="785.74" cy="162.75" r="6.21"/>
<circle cx="804.45" cy="162.56" r="7.18"/>
<circle cx="840.19" cy="162.96" r="7.29"/>
<circle cx="749.02" cy="162.79" r="4.48"/>
<circle cx="767.29" cy="162.79" r="5.32"/>
<circle cx="712.30" cy="162.91" r="3.24"/>
<circle cx="730.24" cy="163.00" r="3.61"/>
<circle cx="804.32" cy="181.56" r="6.96"/>
<circle cx="822.70" cy="181.52" r="7.63"/>
<circle cx="840.49" cy="181.20" r="8.00"/>
<circle cx="767.51" cy="181.88" r="5.05"/>
<circle cx="785.73" cy="181.73" r="5.97"/>
<circle cx="712.59" cy="181.72" r="3.04"/>
<circle cx="730.32" cy="182.18" r="3.48"/>
<circle cx="748.78" cy="182.08" r="3.99"/>
<circle cx="822.59" cy="200.39" r="7.27"/>
<circle cx="840.41" cy="200.25" r="7.63"/>
<circle cx="786.01" cy="200.50" r="5.67"/>
<circle cx="804.43" cy="200.45" r="6.82"/>
<circle cx="749.02" cy="200.83" r="3.87"/>
<circle cx="767.43" cy="200.90" r="4.69"/>
<circle cx="712.21" cy="200.50" r="2.99"/>
<circle cx="730.54" cy="200.91" r="3.34"/>
<circle cx="822.64" cy="219.61" r="7.14"/>
<circle cx="840.56" cy="219.26" r="7.57"/>
<circle cx="785.86" cy="219.67" r="5.29"/>
<circle cx="804.30" cy="219.80" r="6.36"/>
<circle cx="712.24" cy="219.05" r="2.59"/>
<circle cx="730.45" cy="219.58" r="3.14"/>
<circle cx="748.97" cy="219.97" r="3.52"/>
<circle cx="767.34" cy="219.78" r="4.33"/>
<circle cx="840.68" cy="238.62" r="7.86"/>
<circle cx="804.27" cy="238.73" r="6.26"/>
<circle cx="822.62" cy="238.66" r="7.00"/>
<circle cx="767.28" cy="238.87" r="4.41"/>
<circle cx="785.63" cy="238.92" r="5.23"/>
<circle cx="855.08" cy="239.76" r="4.58"/>
<circle cx="730.42" cy="238.94" r="3.14"/>
<circle cx="749.00" cy="239.00" r="3.61"/>
<circle cx="857.30" cy="257.35" r="7.55"/>
<circle cx="822.58" cy="257.70" r="7.05"/>
<circle cx="840.91" cy="257.46" r="7.92"/>
<circle cx="785.82" cy="257.59" r="5.11"/>
<circle cx="804.36" cy="257.74" r="6.18"/>
<circle cx="730.62" cy="257.84" r="3.19"/>
<circle cx="748.92" cy="257.90" r="3.57"/>
<circle cx="767.56" cy="258.18" r="4.26"/>
<circle cx="840.58" cy="276.50" r="7.88"/>
<circle cx="858.13" cy="276.30" r="7.98"/>
<circle cx="804.34" cy="276.82" r="6.02"/>
<circle cx="822.63" cy="276.62" r="7.05"/>
<circle cx="785.82" cy="276.83" r="5.11"/>
<circle cx="730.59" cy="277.14" r="3.04"/>
<circle cx="749.00" cy="277.17" r="3.34"/>
<circle cx="767.57" cy="277.45" r="4.11"/>
<circle cx="822.68" cy="295.80" r="6.91"/>
<circle cx="840.53" cy="296.02" r="7.80"/>
<circle cx="858.53" cy="295.68" r="8.10"/>
<circle cx="785.77" cy="295.92" r="5.01"/>
<circle cx="804.39" cy="295.75" r="6.05"/>
<circle cx="749.07" cy="296.03" r="3.04"/>
<circle cx="767.47" cy="296.16" r="3.78"/>
<circle cx="730.62" cy="296.43" r="2.59"/>
<circle cx="858.19" cy="314.63" r="7.86"/>
<circle cx="804.50" cy="314.59" r="6.13"/>
<circle cx="822.64" cy="314.69" r="7.00"/>
<circle cx="840.79" cy="315.03" r="7.72"/>
<circle cx="749.00" cy="314.50" r="3.74"/>
<circle cx="767.53" cy="314.62" r="4.18"/>
<circle cx="785.94" cy="314.49" r="5.08"/>
<circle cx="730.50" cy="314.50" r="3.19"/>
<circle cx="822.73" cy="333.97" r="6.86"/>
<circle cx="840.85" cy="333.95" r="7.69"/>
<circle cx="856.94" cy="333.52" r="6.36"/>
<circle cx="785.99" cy="333.88" r="4.92"/>
<circle cx="804.50" cy="334.00" r="5.97"/>
<circle cx="730.63" cy="333.63" r="3.09"/>
<circle cx="749.00" cy="334.00" r="3.43"/>
<circle cx="767.50" cy="334.15" r="4.15"/>
<circle cx="804.54" cy="353.10" r="5.97"/>
<circle cx="822.69" cy="353.26" r="6.79"/>
<circle cx="840.74" cy="353.20" r="7.53"/>
<circle cx="856.31" cy="353.30" r="6.43"/>
<circle cx="785.82" cy="353.00" r="5.17"/>
<circle cx="730.50" cy="352.67" r="3.09"/>
<circle cx="749.05" cy="353.08" r="3.48"/>
<circle cx="767.43" cy="353.20" r="3.95"/>
<circle cx="840.84" cy="372.05" r="7.48"/>
<circle cx="858.22" cy="371.86" r="7.82"/>
<circle cx="804.45" cy="372.08" r="5.78"/>
<circle cx="822.75" cy="371.96" r="6.79"/>
<circle cx="748.92" cy="372.20" r="3.57"/>
<circle cx="767.50" cy="372.36" r="3.99"/>
<circle cx="785.86" cy="372.01" r="4.75"/>
<circle cx="730.50" cy="372.21" r="2.99"/>
<circle cx="858.57" cy="391.10" r="8.06"/>
<circle cx="822.77" cy="391.14" r="6.65"/>
<circle cx="840.55" cy="391.27" r="7.69"/>
<circle cx="875.78" cy="391.85" r="7.36"/>
<circle cx="785.94" cy="391.22" r="4.62"/>
<circle cx="804.29" cy="391.15" r="5.64"/>
<circle cx="749.35" cy="391.26" r="3.14"/>
<circle cx="767.50" cy="391.00" r="3.74"/>
<circle cx="840.80" cy="410.27" r="7.31"/>
<circle cx="858.68" cy="409.98" r="8.20"/>
<circle cx="876.55" cy="409.94" r="7.96"/>
<circle cx="804.20" cy="410.15" r="5.61"/>
<circle cx="822.72" cy="410.07" r="6.53"/>
<circle cx="893.10" cy="411.22" r="7.05"/>
<circle cx="767.18" cy="410.50" r="3.74"/>
<circle cx="786.03" cy="410.06" r="4.58"/>
<circle cx="749.73" cy="410.05" r="2.65"/>
<circle cx="858.64" cy="428.96" r="8.06"/>
<circle cx="876.33" cy="431.89" r="9.37"/>
<circle cx="894.96" cy="427.82" r="7.72"/>
<circle cx="822.75" cy="429.17" r="6.48"/>
<circle cx="840.97" cy="429.22" r="7.51"/>
<circle cx="804.17" cy="429.25" r="5.44"/>
<circle cx="767.50" cy="429.50" r="3.19"/>
<circle cx="785.93" cy="429.47" r="4.33"/>
<circle cx="840.59" cy="448.35" r="7.57"/>
<circle cx="858.10" cy="447.71" r="7.53"/>
<circle cx="804.13" cy="448.49" r="5.56"/>
<circle cx="822.78" cy="448.28" r="6.60"/>
<circle cx="785.66" cy="448.88" r="4.62"/>
<circle cx="748.82" cy="448.68" r="2.99"/>
<circle cx="767.54" cy="448.88" r="3.61"/>
<circle cx="822.65" cy="467.65" r="6.75"/>
<circle cx="840.96" cy="467.52" r="7.88"/>
<circle cx="857.97" cy="467.57" r="7.33"/>
<circle cx="786.14" cy="467.56" r="4.82"/>
<circle cx="804.48" cy="467.70" r="5.89"/>
<circle cx="730.45" cy="467.58" r="3.14"/>
<circle cx="748.97" cy="467.61" r="3.48"/>
<circle cx="767.50" cy="467.50" r="4.07"/>
<circle cx="849.96" cy="486.07" r="11.42"/>
<circle cx="804.42" cy="486.96" r="6.00"/>
<circle cx="822.82" cy="486.98" r="6.84"/>
<circle cx="767.50" cy="486.64" r="3.99"/>
<circle cx="785.86" cy="486.78" r="4.85"/>
<circle cx="730.21" cy="486.50" r="2.99"/>
<circle cx="748.85" cy="486.62" r="3.29"/>
<circle cx="822.70" cy="506.26" r="7.09"/>
<circle cx="839.72" cy="506.69" r="7.53"/>
<circle cx="856.19" cy="506.16" r="7.82"/>
<circle cx="785.85" cy="506.23" r="5.23"/>
<circle cx="804.36" cy="506.20" r="6.26"/>
<circle cx="730.50" cy="505.67" r="3.09"/>
<circle cx="749.00" cy="505.67" r="3.66"/>
<circle cx="767.42" cy="505.72" r="4.26"/>
<circle cx="804.50" cy="525.41" r="6.91"/>
<circle cx="822.50" cy="525.34" r="7.36"/>
<circle cx="840.31" cy="525.33" r="7.57"/>
<circle cx="748.98" cy="524.83" r="3.87"/>
<circle cx="767.55" cy="525.04" r="4.62"/>
<circle cx="786.04" cy="525.22" r="5.67"/>
<circle cx="711.71" cy="524.50" r="3.29"/>
<circle cx="730.43" cy="524.77" r="3.34"/>
<circle cx="822.46" cy="544.43" r="7.65"/>
<circle cx="840.67" cy="544.61" r="8.14"/>
<circle cx="785.95" cy="544.48" r="5.84"/>
<circle cx="804.41" cy="544.59" r="6.96"/>
<circle cx="730.50" cy="543.83" r="3.39"/>
<circle cx="748.90" cy="544.17" r="3.91"/>
<circle cx="767.47" cy="544.37" r="4.89"/>
<circle cx="711.90" cy="544.32" r="3.14"/>
<circle cx="785.72" cy="563.74" r="6.28"/>
<circle cx="804.53" cy="563.74" r="7.31"/>
<circle cx="822.67" cy="563.33" r="7.63"/>
<circle cx="840.11" cy="563.38" r="7.90"/>
<circle cx="748.91" cy="563.29" r="4.30"/>
<circle cx="767.37" cy="563.51" r="4.89"/>
<circle cx="711.83" cy="563.60" r="3.09"/>
<circle cx="730.51" cy="563.15" r="3.52"/>
<circle cx="804.38" cy="581.51" r="6.86"/>
<circle cx="822.42" cy="580.60" r="7.20"/>
<circle cx="786.01" cy="582.10" r="6.02"/>
<circle cx="730.27" cy="581.11" r="3.43"/>
<circle cx="748.98" cy="581.67" r="3.95"/>
<circle cx="767.44" cy="581.87" r="4.89"/>
<circle cx="674.33" cy="592.75" r="4.48"/>
<circle cx="693.03" cy="593.06" r="4.65"/>
<circle cx="711.22" cy="592.46" r="5.14"/>
<circle cx="657.10" cy="611.43" r="4.48"/>
<circle cx="675.00" cy="611.93" r="4.72"/>
<circle cx="693.10" cy="612.11" r="5.11"/>
<circle cx="582.00" cy="611.29" r="2.76"/>
<circle cx="600.69" cy="611.45" r="3.04"/>
<circle cx="619.58" cy="611.42" r="3.24"/>
<circle cx="638.43" cy="611.53" r="4.03"/>
<circle cx="601.42" cy="630.06" r="3.14"/>
<circle cx="619.92" cy="630.20" r="3.57"/>
<circle cx="638.13" cy="630.71" r="3.78"/>
<circle cx="656.76" cy="630.81" r="4.48"/>
<circle cx="674.87" cy="630.71" r="4.98"/>
<circle cx="692.72" cy="631.28" r="5.01"/>
<circle cx="582.26" cy="630.41" r="2.93"/>
<circle cx="675.33" cy="649.55" r="4.89"/>
<circle cx="693.05" cy="650.14" r="4.98"/>
<circle cx="619.79" cy="649.50" r="2.99"/>
<circle cx="638.24" cy="649.76" r="3.43"/>
<circle cx="656.71" cy="649.71" r="4.07"/>
<circle cx="601.50" cy="650.00" r="2.88"/>
<circle cx="656.55" cy="668.69" r="3.95"/>
<circle cx="675.26" cy="668.88" r="4.65"/>
<circle cx="693.45" cy="668.90" r="5.14"/>
<circle cx="711.45" cy="669.53" r="5.38"/>
<circle cx="620.15" cy="668.42" r="2.88"/>
<circle cx="638.19" cy="668.64" r="3.39"/>
<circle cx="693.88" cy="687.76" r="4.85"/>
<circle cx="712.07" cy="688.07" r="5.50"/>
<circle cx="729.62" cy="688.90" r="5.84"/>
<circle cx="638.50" cy="687.60" r="3.09"/>
<circle cx="657.00" cy="687.50" r="3.48"/>
<circle cx="675.44" cy="687.96" r="4.18"/>
<circle cx="675.67" cy="706.67" r="3.78"/>
<circle cx="693.78" cy="706.83" r="4.37"/>
<circle cx="712.44" cy="706.98" r="5.08"/>
<circle cx="730.93" cy="707.47" r="5.75"/>
<circle cx="748.67" cy="707.72" r="6.08"/>
<circle cx="657.21" cy="706.50" r="2.99"/>
<circle cx="730.55" cy="725.75" r="5.61"/>
<circle cx="749.06" cy="725.87" r="6.26"/>
<circle cx="766.99" cy="726.67" r="6.23"/>
<circle cx="675.40" cy="725.34" r="3.34"/>
<circle cx="693.71" cy="725.94" r="4.03"/>
<circle cx="712.32" cy="726.08" r="4.75"/>
<circle cx="767.27" cy="744.90" r="6.13"/>
<circle cx="712.07" cy="744.91" r="4.15"/>
<circle cx="730.43" cy="745.10" r="4.62"/>
<circle cx="749.02" cy="745.10" r="5.47"/>
<circle cx="784.75" cy="745.59" r="6.02"/>
<circle cx="693.89" cy="744.86" r="3.43"/>
<circle cx="785.59" cy="763.78" r="6.77"/>
<circle cx="767.60" cy="763.79" r="5.81"/>
<circle cx="801.83" cy="765.12" r="5.94"/>
<circle cx="712.63" cy="763.92" r="3.48"/>
<circle cx="730.63" cy="763.85" r="4.07"/>
<circle cx="748.99" cy="763.96" r="4.75"/>
<circle cx="785.78" cy="782.49" r="6.02"/>
<circle cx="804.17" cy="782.74" r="7.02"/>
<circle cx="749.03" cy="782.69" r="4.30"/>
<circle cx="767.60" cy="782.68" r="5.17"/>
<circle cx="713.00" cy="782.71" r="2.76"/>
<circle cx="730.64" cy="782.91" r="3.74"/>
<circle cx="804.31" cy="801.79" r="6.89"/>
<circle cx="786.11" cy="801.71" r="5.78"/>
<circle cx="821.48" cy="802.45" r="6.46"/>
<circle cx="730.55" cy="802.21" r="3.24"/>
<circle cx="749.00" cy="802.00" r="3.78"/>
<circle cx="767.67" cy="802.03" r="4.69"/>
<circle cx="804.41" cy="820.72" r="6.70"/>
<circle cx="822.96" cy="821.07" r="7.51"/>
<circle cx="767.51" cy="821.00" r="4.55"/>
<circle cx="785.98" cy="820.93" r="5.56"/>
<circle cx="730.50" cy="821.00" r="2.88"/>
<circle cx="749.00" cy="821.24" r="3.61"/>
<circle cx="839.19" cy="840.39" r="7.07"/>
<circle cx="786.22" cy="840.24" r="5.11"/>
<circle cx="804.55" cy="840.31" r="6.28"/>
<circle cx="822.41" cy="840.41" r="6.96"/>
<circle cx="749.03" cy="840.32" r="3.48"/>
<circle cx="767.47" cy="840.43" r="4.03"/>
<circle cx="822.74" cy="859.48" r="7.07"/>
<circle cx="840.89" cy="859.65" r="7.69"/>
<circle cx="786.11" cy="859.53" r="4.89"/>
<circle cx="804.53" cy="859.47" r="6.13"/>
<circle cx="749.29" cy="859.50" r="3.29"/>
<circle cx="767.60" cy="859.40" r="3.99"/>
<circle cx="840.80" cy="878.83" r="7.72"/>
<circle cx="804.55" cy="878.62" r="6.10"/>
<circle cx="822.70" cy="878.66" r="6.86"/>
<circle cx="855.52" cy="879.49" r="6.23"/>
<circle cx="785.99" cy="878.64" r="4.98"/>
<circle cx="749.72" cy="878.59" r="3.04"/>
<circle cx="767.50" cy="878.87" r="3.83"/>
<circle cx="857.77" cy="897.73" r="7.86"/>
<circle cx="822.66" cy="897.73" r="7.02"/>
<circle cx="840.63" cy="897.99" r="7.88"/>
<circle cx="785.91" cy="897.73" r="4.72"/>
<circle cx="804.50" cy="897.79" r="5.97"/>
<circle cx="767.30" cy="897.70" r="3.87"/>
<circle cx="840.68" cy="916.84" r="8.10"/>
<circle cx="858.89" cy="916.83" r="8.33"/>
<circle cx="822.75" cy="917.16" r="7.09"/>
<circle cx="786.09" cy="917.16" r="4.65"/>
<circle cx="804.43" cy="917.33" r="5.97"/>
<circle cx="767.16" cy="917.33" r="3.70"/>
<circle cx="822.73" cy="935.81" r="6.89"/>
<circle cx="840.89" cy="935.67" r="7.51"/>
<circle cx="858.78" cy="935.44" r="7.76"/>
<circle cx="804.41" cy="936.06" r="5.92"/>
<circle cx="767.32" cy="936.75" r="3.74"/>
<circle cx="785.85" cy="936.04" r="4.82"/>
</g>
</svg>